<svg width="41" height="45" viewBox="0 0 41 45" fill="none" xmlns="http://www.w3.org/2000/svg">
<g clip-path="url(#clip0_2051_560)">
<path fill-rule="evenodd" clip-rule="evenodd" d="M40.3322 22.5C40.3322 34.9264 31.3779 45 20.3321 45C9.28638 45 0.332031 34.9264 0.332031 22.5C0.332031 10.0736 9.28638 0 20.3321 0C31.3779 0 40.3322 10.0736 40.3322 22.5ZM21.0488 16.6105C19.1035 17.5207 15.2157 19.4047 9.38523 22.2625C8.43846 22.686 7.9425 23.1004 7.89735 23.5056C7.82104 24.1903 8.58325 24.4599 9.62119 24.8271C9.76238 24.877 9.90867 24.9288 10.0586 24.9836C11.0798 25.3571 12.4535 25.794 13.1676 25.8113C13.8153 25.8271 14.5383 25.5266 15.3365 24.91C20.7841 20.7731 23.5961 18.6821 23.7727 18.6371C23.8972 18.6053 24.0698 18.5653 24.1868 18.6822C24.3037 18.7991 24.2922 19.0206 24.2798 19.08C24.2043 19.4421 21.2123 22.5714 19.664 24.1908C19.1813 24.6957 18.8389 25.0538 18.7689 25.1356C18.6121 25.3188 18.4523 25.4921 18.2988 25.6586C17.3501 26.6875 16.6386 27.459 18.3381 28.719C19.1549 29.3245 19.8084 29.8251 20.4604 30.3247C21.1724 30.8702 21.8826 31.4142 22.8015 32.0919C23.0356 32.2645 23.2592 32.4438 23.477 32.6185C24.3056 33.2831 25.0501 33.8801 25.9698 33.7849C26.5042 33.7296 27.0563 33.1643 27.3366 31.4782C27.9992 27.4934 29.3015 18.8596 29.6025 15.3018C29.6289 14.9901 29.5957 14.5912 29.5691 14.4161C29.5425 14.241 29.4868 13.9915 29.2844 13.8067C29.0448 13.588 28.6749 13.5419 28.5094 13.5452C27.7572 13.5601 26.6031 14.0115 21.0488 16.6105Z" fill="white"/>
</g>
<defs>
<clipPath id="clip0_2051_560">
<rect width="40.0002" height="45" fill="white" transform="translate(0.332031)"/>
</clipPath>
</defs>
</svg>
