<svg width="40" height="45" viewBox="0 0 40 45" fill="none" xmlns="http://www.w3.org/2000/svg">
<path d="M39.6017 13.5C39.6017 13.5 39.2111 10.3975 38.008 9.03516C36.4846 7.24219 34.7814 7.2334 34.0002 7.12793C28.4064 6.6709 20.0079 6.6709 20.0079 6.6709H19.9923C19.9923 6.6709 11.5938 6.6709 6.00003 7.12793C5.21878 7.2334 3.51564 7.24219 1.9922 9.03516C0.789066 10.3975 0.406252 13.5 0.406252 13.5C0.406252 13.5 0 17.1475 0 20.7861V24.1963C0 27.835 0.398439 31.4824 0.398439 31.4824C0.398439 31.4824 0.789066 34.585 1.98438 35.9473C3.50783 37.7402 5.50784 37.6787 6.39847 37.8721C9.60161 38.2148 20.0001 38.3203 20.0001 38.3203C20.0001 38.3203 28.4064 38.3027 34.0002 37.8545C34.7814 37.749 36.4846 37.7402 38.008 35.9473C39.2111 34.585 39.6017 31.4824 39.6017 31.4824C39.6017 31.4824 40.0002 27.8437 40.0002 24.1963V20.7861C40.0002 17.1475 39.6017 13.5 39.6017 13.5ZM15.8673 28.3359V15.6885L26.672 22.0342L15.8673 28.3359Z" fill="white"/>
</svg>
