<svg width="41" height="45" viewBox="0 0 41 45" fill="none" xmlns="http://www.w3.org/2000/svg">
<g clip-path="url(#clip0_2051_561)">
<path fill-rule="evenodd" clip-rule="evenodd" d="M3.47976 3.16325C0.667969 6.32649 0.667969 11.4176 0.667969 21.6V23.4C0.667969 33.5824 0.667969 38.6735 3.47976 41.8368C6.29155 45 10.817 45 19.8681 45H21.4681C30.5191 45 35.0445 45 37.8564 41.8368C40.6682 38.6735 40.6682 33.5824 40.6682 23.4V21.6C40.6682 11.4176 40.6682 6.32649 37.8564 3.16325C35.0445 0 30.5191 0 21.4681 0H19.8681C10.817 0 6.29155 0 3.47976 3.16325ZM7.4181 13.6876C7.63477 25.3876 12.8348 32.4188 21.9515 32.4188H22.4682V25.7251C25.8183 26.1001 28.3514 28.8563 29.3681 32.4188H34.1015C32.8015 27.0938 29.3847 24.1501 27.2513 23.0251C29.3847 21.6376 32.3847 18.2626 33.1014 13.6876H28.8013C27.8679 17.4001 25.1016 20.7751 22.4682 21.0938V13.6876H18.1681V26.6626C15.5014 25.9126 12.1348 22.2751 11.9848 13.6876H7.4181Z" fill="white"/>
</g>
<defs>
<clipPath id="clip0_2051_561">
<rect width="40.0002" height="45" fill="white" transform="translate(0.667969)"/>
</clipPath>
</defs>
</svg>
