<svg width="19" height="20" viewBox="0 0 19 20" fill="none" xmlns="http://www.w3.org/2000/svg">
<mask id="mask0_2416_165" style="mask-type:alpha" maskUnits="userSpaceOnUse" x="0" y="0" width="19" height="20">
<rect x="0.621094" y="0.555664" width="17.76" height="18.6667" fill="#D9D9D9"/>
</mask>
<g mask="url(#mask0_2416_165)">
<path d="M5.80203 16.8887C5.39503 16.8887 5.04661 16.7364 4.75678 16.4317C4.46695 16.1271 4.32203 15.7609 4.32203 15.3331V5.22201H3.58203V3.66645H7.28203V2.88867H11.722V3.66645H15.422V5.22201H14.682V15.3331C14.682 15.7609 14.5371 16.1271 14.2473 16.4317C13.9574 16.7364 13.609 16.8887 13.202 16.8887H5.80203ZM13.202 5.22201H5.80203V15.3331H13.202V5.22201ZM7.28203 13.7776H8.76203V6.77756H7.28203V13.7776ZM10.242 13.7776H11.722V6.77756H10.242V13.7776Z" fill="#1C1B1F" fill-opacity="0.7"/>
</g>
</svg>
