<svg width="28" height="28" viewBox="0 0 28 28" fill="none" xmlns="http://www.w3.org/2000/svg">
<mask id="mask0_2223_1154" style="mask-type:alpha" maskUnits="userSpaceOnUse" x="0" y="0" width="28" height="28">
<rect x="0.398438" y="0.400635" width="27.2027" height="27.2027" fill="#D9D9D9"/>
</mask>
<g mask="url(#mask0_2223_1154)">
<path d="M8.33393 24.203C7.71053 24.203 7.17687 23.9811 6.73294 23.5371C6.289 23.0932 6.06704 22.5595 6.06704 21.9361V7.20136H4.93359V4.93447H10.6008V3.80103H17.4015V4.93447H23.0687V7.20136H21.9353V21.9361C21.9353 22.5595 21.7133 23.0932 21.2694 23.5371C20.8254 23.9811 20.2918 24.203 19.6684 24.203H8.33393ZM19.6684 7.20136H8.33393V21.9361H19.6684V7.20136ZM10.6008 19.6692H12.8677V9.46825H10.6008V19.6692ZM15.1346 19.6692H17.4015V9.46825H15.1346V19.6692Z" fill="white"/>
</g>
</svg>
