<svg width="40" height="45" viewBox="0 0 40 45" fill="none" xmlns="http://www.w3.org/2000/svg">
<path d="M20.0001 4.05176C25.3439 4.05176 25.9767 4.07812 28.0783 4.18359C30.0314 4.28027 31.0861 4.64941 31.7892 4.95703C32.7189 5.36133 33.3908 5.85352 34.0861 6.63574C34.7892 7.42676 35.2189 8.17383 35.5783 9.21973C35.8517 10.0107 36.1799 11.2061 36.2658 13.3945C36.3596 15.7676 36.383 16.4795 36.383 22.4824C36.383 28.4941 36.3596 29.2061 36.2658 31.5703C36.1799 33.7676 35.8517 34.9541 35.5783 35.7451C35.2189 36.791 34.7814 37.5469 34.0861 38.3291C33.383 39.1201 32.7189 39.6035 31.7892 40.0078C31.0861 40.3154 30.0236 40.6846 28.0783 40.7813C25.9689 40.8867 25.3361 40.9131 20.0001 40.9131C14.6563 40.9131 14.0235 40.8867 11.9219 40.7813C9.9688 40.6846 8.91411 40.3154 8.21098 40.0078C7.28129 39.6035 6.60941 39.1113 5.91409 38.3291C5.21096 37.5381 4.78127 36.791 4.4219 35.7451C4.14846 34.9541 3.82033 33.7588 3.73439 31.5703C3.64064 29.1973 3.6172 28.4854 3.6172 22.4824C3.6172 16.4707 3.64064 15.7588 3.73439 13.3945C3.82033 11.1973 4.14846 10.0107 4.4219 9.21973C4.78127 8.17383 5.21877 7.41797 5.91409 6.63574C6.61722 5.84473 7.28129 5.36133 8.21098 4.95703C8.91411 4.64941 9.97661 4.28027 11.9219 4.18359C14.0235 4.07812 14.6563 4.05176 20.0001 4.05176ZM20.0001 0C14.5704 0 13.8907 0.0263672 11.7579 0.131836C9.63286 0.237305 8.17191 0.624023 6.90628 1.17773C5.58596 1.75781 4.46877 2.52246 3.35939 3.7793C2.2422 5.02734 1.56251 6.28418 1.04688 7.76074C0.55469 9.19336 0.210939 10.8281 0.117188 13.2188C0.0234376 15.627 0 16.3916 0 22.5C0 28.6084 0.0234376 29.373 0.117188 31.7725C0.210939 34.1631 0.55469 35.8066 1.04688 37.2305C1.56251 38.7158 2.2422 39.9727 3.35939 41.2207C4.46877 42.4688 5.58596 43.2422 6.89847 43.8135C8.17192 44.3672 9.62505 44.7539 11.7501 44.8594C13.8829 44.9648 14.5626 44.9912 19.9923 44.9912C25.422 44.9912 26.1017 44.9648 28.2345 44.8594C30.3595 44.7539 31.8205 44.3672 33.0861 43.8135C34.3986 43.2422 35.5158 42.4688 36.6252 41.2207C37.7346 39.9727 38.4221 38.7158 38.9299 37.2393C39.4221 35.8066 39.7658 34.1719 39.8596 31.7813C39.9533 29.3818 39.9768 28.6172 39.9768 22.5088C39.9768 16.4004 39.9533 15.6357 39.8596 13.2363C39.7658 10.8457 39.4221 9.20215 38.9299 7.77832C38.4377 6.28418 37.758 5.02734 36.6408 3.7793C35.5314 2.53125 34.4142 1.75781 33.1017 1.18652C31.8283 0.632812 30.3751 0.246094 28.2501 0.140625C26.1095 0.0263672 25.4298 0 20.0001 0Z" fill="white"/>
<path d="M20 10.9424C14.3281 10.9424 9.72656 16.1191 9.72656 22.5C9.72656 28.8809 14.3281 34.0576 20 34.0576C25.672 34.0576 30.2735 28.8809 30.2735 22.5C30.2735 16.1191 25.672 10.9424 20 10.9424ZM20 29.9971C16.3203 29.9971 13.336 26.6396 13.336 22.5C13.336 18.3604 16.3203 15.0029 20 15.0029C23.6798 15.0029 26.6641 18.3604 26.6641 22.5C26.6641 26.6396 23.6798 29.9971 20 29.9971Z" fill="white"/>
<path d="M33.0781 10.4854C33.0781 11.9795 32 13.1836 30.6797 13.1836C29.3516 13.1836 28.2812 11.9707 28.2812 10.4854C28.2812 8.99121 29.3594 7.78711 30.6797 7.78711C32 7.78711 33.0781 9 33.0781 10.4854Z" fill="white"/>
</svg>
